<svg xmlns="http://www.w3.org/2000/svg" viewBox="0 0 495.6 495.7"><defs><style>.cls-2{opacity:.7}</style></defs><g id="Calque_2" data-name="Calque 2"><g id="Calque_1-2" data-name="Calque 1"><g id="Enseignant"><path d="M248 495.7A247.8 247.8 0 0 1 127.8 31.2a247.8 247.8 0 0 1 309.7 57 5.4 5.4 0 1 1-8.4 7 236.9 236.9 0 0 0-408.9 87.4 237 237 0 0 0 438.3 173.7 5.4 5.4 0 0 1 9.7 5 248.1 248.1 0 0 1-220 134.4ZM484.8 304a5.7 5.7 0 0 1-1.2-.1 5.4 5.4 0 0 1-4.1-6.5 234.8 234.8 0 0 0 2.3-87 5.4 5.4 0 0 1 10.7-1.7 245.9 245.9 0 0 1-2.4 91 5.4 5.4 0 0 1-5.3 4.3Z"/><path d="M148.7 248.8a33 33 0 1 1 33-33 33 33 0 0 1-33 33Zm0-55.1a22.1 22.1 0 1 0 22.1 22.1 22.1 22.1 0 0 0-22-22.1Zm72.1 55.1a33 33 0 1 1 33-33 33 33 0 0 1-33 33Zm0-55.1a22.1 22.1 0 1 0 22.1 22.1 22.1 22.1 0 0 0-22-22.1Z"/><path d="M196.6 208.8h-20.3a5.6 5.6 0 0 1-5.6-4.3 5.5 5.5 0 0 1 5.4-6.7h20.4a5.6 5.6 0 0 1 5.5 4.3 5.5 5.5 0 0 1-5.4 6.7Zm66.7 72.9a5.3 5.3 0 0 1-2.3-.5 5.4 5.4 0 0 1-2.6-7.2l19.6-42a148.6 148.6 0 0 0 14-50.9c1.9-21.5-1.2-41-9.2-59.4-.7-1.3-8.2-16.6-13.7-23.6a5.4 5.4 0 0 1 8.4-6.7c6.5 8.1 14.7 25 15 25.7l.2.1a131.7 131.7 0 0 1 10.1 64.9 159.3 159.3 0 0 1-15 54.6l-19.7 41.8a5.4 5.4 0 0 1-5 3Z"/><path d="M116 301.9a5.4 5.4 0 0 1-4.8-2.9L78 238a137.5 137.5 0 0 1-7.5-109c17.3-48 56.8-73.3 114-73.3 32 0 59.5 8.4 79.7 24.4a5.4 5.4 0 0 1-6.7 8.5c-18.3-14.4-43.5-22-73-22-53 0-88 22.3-103.8 66.2-11.6 32.4-9.1 69 7 100.2l33 60.9a5.4 5.4 0 0 1-4.8 8Z"/><path d="M183.6 339.3a87.1 87.1 0 0 1-85.5-87v-79.7a5.3 5.3 0 0 1 5.8-5.4c28 2.1 76.6-36.8 77-37.2a5.4 5.4 0 0 1 8.7 5.2c-.5 2.2-3.8 17.8-9.3 29a337 337 0 0 0 36.8-6c28-6 41.5-12 44.5-15.3a5.4 5.4 0 0 1 9.5 3.6l1 26.3v78.3c0 48.9-39.7 89-88.5 88.2ZM108 178.1v73.4a77 77 0 0 0 69.4 77 76.6 76.6 0 0 0 83.6-76.2v-79.7l.1-16.3a210 210 0 0 1-41.4 12.5c-18.9 4-42.4 7.7-49 6.3a6.2 6.2 0 0 1-5-4.2 6 6 0 0 1 1.4-5.8 54.2 54.2 0 0 0 8-17.6c-16.1 11.3-44.6 29.1-67 30.6Z"/><path d="M335.3 459.7a5.5 5.5 0 0 1-5.4-4.3l-13.9-66c-4.4-20.8-26.6-36.5-54-38.3h-.2l-45.7-3.7a5.4 5.4 0 0 1-5-5.4v-13.3a5.6 5.6 0 0 1 4.3-5.5 5.5 5.5 0 0 1 6.7 5.3v8.3l40.6 3.3c32.3 2.2 58.7 21.5 64 47l14 65.9a5.8 5.8 0 0 1-3.3 6.3 5.7 5.7 0 0 1-2.1.4ZM48.4 392.2a5.5 5.5 0 0 1-5.4-6.6c5.3-25.2 30.2-42.8 63.5-45l43.6-3.4v-8a5.6 5.6 0 0 1 4.3-5.6 5.5 5.5 0 0 1 6.7 5.4v13.4a5.4 5.4 0 0 1-5 5.4l-48.8 3.7C79 353.4 58 367.7 53.8 388a5.5 5.5 0 0 1-5.4 4.3ZM188 409.6a56.3 56.3 0 0 1-16.6-2.5 58 58 0 0 1-22-12.4 5.4 5.4 0 0 1 7.6-7.7c1 1 27 25.6 62.9.9a5.4 5.4 0 1 1 6.2 9 66.7 66.7 0 0 1-38.1 12.7Z"/><g opacity=".2"><path d="M106.3 190.6s36.4-7.8 47.3-14l-6.2 9.4s71.3 0 117.8-20.2l1.6-15.5-28.7 9s-52 10.2-51.6 9.9-13.4.8-13.4.8 3.5-10.2 4-11a90.2 90.2 0 0 0 5-15l-7.8-2.3s-9.8 4.7-11.4 6.3-.8 5-7.8 6.4-7.7 1.3-13.1 4.4-6.2 2.4-10.9 4.7-7 3.9-8.5 4.6-5.7 3.3-5.7 3.3a10.3 10.3 0 0 1-3.8.8c-1.4-.2-3 .6-3.7.6S103 176 103 176ZM225 343.3l-1-.1-9.3-1a6.5 6.5 0 0 0-1 0 35.3 35.3 0 0 0 2.4-9.4c.2-5.7-63 .7-63 .7a52.4 52.4 0 0 0 3.2 9l-6.9.7-1 .2a7.1 7.1 0 0 0-5.8 8.6l23.2 101.2a7.2 7.2 0 1 0 13.9-3.6L156 367.2a7.1 7.1 0 0 1 2.4-7.5l5.5-4.5.3-.3a29.2 29.2 0 0 0 19.5 10.1 26 26 0 0 0 24-11.8 7 7 0 0 0 1.7 2l5.6 4.5a7.1 7.1 0 0 1 2.3 7.5l-31.3 108a7.2 7.2 0 1 0 13.9 3.6L231 352a7.1 7.1 0 0 0-6-8.7Z"/><path d="M184.6 134s14.4 18.8 11.9 33.8l-25 .4Z"/></g><path d="M184.7 292.5c-6.6 0-13-1.7-20.6-5.1h-.3a5.4 5.4 0 1 1 2.8-10.6l.7.2a6 6 0 0 1 .9.3c11.4 5.2 19 6.4 34.4-.2a5.4 5.4 0 0 1 4.3 10 56.2 56.2 0 0 1-22.2 5.4ZM168 466.2a5.4 5.4 0 0 1-5.4-4.2l-26.3-111.2a5.4 5.4 0 1 1 10.5-2.5l26.4 111.2a5.4 5.4 0 0 1-5.3 6.7Zm36.4 21.7a5.5 5.5 0 0 1-1.3-.1 5.4 5.4 0 0 1-4-6.6l31.8-133a5.4 5.4 0 1 1 10.5 2.6l-31.7 133a5.4 5.4 0 0 1-5.3 4.1Z"/><path d="M309.2 362.4c-21.5-13.2-75.8-17-75.8-17l-18.1 72.4h6.9l-13 47-3.3 23.2 65.1 1.5 65.1-14.7s-5.4-99.3-26.9-112.4Z" class="cls-2"/><path d="M275.2 92.5c0 .5-.8-2.4-.8-1.9A10.5 10.5 0 1 1 264 80.1h.7c-18.3-14.3-44.1-21.5-79-19C79.4 69 67 165.8 67 165.8l.2 10.5a130.6 130.6 0 0 0 22.4 70.5 1615 1615 0 0 0 17.2 25c-12.2-45.2-2.6-99-2.6-99 40.3-3.1 83-42.7 81.4-38.8s-13.2 35.7-13.2 35.7c48.9 1.5 95.4-23.3 95.4-23.3s-.8 14.8 1.5 91.5a130.3 130.3 0 0 1-3.4 35.6L293 218c4.7-8.6 3.4-16.5 3.1-26.3v-2.4c2.9-42.8 1-72.8-21-96.9Z" opacity=".5"/><path d="M464.7 338.8H313.9a5.6 5.6 0 0 1-5.5-4.3 5.5 5.5 0 0 1 5.4-6.7H459v-212H325a5.6 5.6 0 0 1-5.5-4.3 5.5 5.5 0 0 1 5.4-6.7h139.9a5.4 5.4 0 0 1 5.4 5.5v223.1a5.4 5.4 0 0 1-5.4 5.4Z"/><path d="M324 131.8a9.4 9.4 0 0 0-9.2 11.3 128.7 128.7 0 0 1 1.1 45.8c-5.5 34.7-29.6 84.4-45.5 110.7a9.4 9.4 0 0 0 8 14.2l163.7-.8V131.8Zm96 132.4c-9.6 4.7-15.8 2.4-19.3-.3a21.9 21.9 0 0 1-7-12.2c-5.8 10.6-13 16.1-21.7 16.5h-1.8c-8.3 0-15-2.7-20-8.3-9.3-10.2-12-29.5-7.8-57 2.5-16.5 9-28.2 19.4-34.6a43 43 0 0 1 33.3-3.7 5.4 5.4 0 0 1-3.3 10.3c-.1 0-13.5-4.1-24.3 2.7-7.6 4.7-12.4 13.7-14.4 26.8-3.5 23.6-1.7 40.7 5.1 48.3 3.1 3.4 7.5 5 13.2 4.7 10.1-.5 17-17.5 21-35.1a248.6 248.6 0 0 1 4.2-29.4 5.4 5.4 0 0 1 10.7 1.5 217.2 217.2 0 0 1-4.2 29.6c-1.8 24.4 2.8 30.1 4.3 31.3s4.2 1 7.9-.8a5.4 5.4 0 0 1 4.7 9.7ZM152 472.7l19 1.3-11-54.8-19.2-74s-56.6 4-79 17.1c-6.6 4-11.8 14.5-15.7 27.5 14 17.1 49.6 55.6 105.9 82.9Z" class="cls-2"/><path d="m276 99.6-5.3-9.4a39 39 0 0 1 20.8-3A5.4 5.4 0 1 1 291 98c-10.3-.7-14.9 1.6-15 1.6Z"/></g></g></g></svg>