<svg xmlns="http://www.w3.org/2000/svg" viewBox="0 0 488.7 480"><defs><style>.cls-1{opacity:.2}.cls-2{opacity:.6}.cls-3{opacity:.4}</style></defs><g id="Calque_2" data-name="Calque 2"><g id="Calque_1-2" data-name="Calque 1"><g id="Parents_d_élèves" data-name="Parents d'élèves"><path d="M418.5 295.7a5.6 5.6 0 0 1-1.8-11c46.8-15.6 46.6-62 46.3-111.3 0-3.7 0-7.4-.3-11.2v-.6c.2-50.5-47-91.6-105.1-91.6s-105.4 41-105.4 91.5l2.9 75.7v.3c-.1 1.2-1.6 30.8 42.6 46a5.6 5.6 0 1 1-3.7 10.7c-27.3-9.4-39.5-24.2-45-35a47 47 0 0 1-5.2-22.1l-3-75.4c0-56.7 52.4-102.9 116.7-102.9S474.2 105 473.6 161.7v.6a78.3 78.3 0 0 1 .6 11.2c.1 25 .3 50.8-6.2 72.4a70.2 70.2 0 0 1-47.8 49.5 5.5 5.5 0 0 1-1.7.3Z"/><path d="M370.4 324.7a82.6 82.6 0 0 1-94.7-81.6v-74a5.7 5.7 0 0 1 5-5.8 5.5 5.5 0 0 1 6 5.5v4c11 .4 44.5 1 73.1-4.4 37.6-7 65.7-23 70-27.9a5.6 5.6 0 0 1 4.2-1.9 5.6 5.6 0 0 1 5.7 5.7l1 24.6v73.6c0 41-29.8 76.4-70.3 82.2Zm-83.8-140.6v58.4a71.5 71.5 0 0 0 64.5 71.5 71 71 0 0 0 77.5-70.7v-74.5l.1-13.4c-14 8.5-39.4 19-66.6 24a371.8 371.8 0 0 1-75.5 4.7Z"/><path d="M205.9 477.1a5.6 5.6 0 0 1-1.3-.2 5.6 5.6 0 0 1-4.2-6.7l24.4-100.8c5-23.8 29.6-41.8 59.7-43.8l40.2-3v-7.1a5.2 5.2 0 0 1 5.3-5.6 5.7 5.7 0 0 1 5.7 5.6v12.3a5.7 5.7 0 0 1-5.3 5.6l-45 3.4c-25.2 1.7-45.6 16-49.6 35a1 1 0 0 1 0 .2l-24.4 100.8a5.6 5.6 0 0 1-5.5 4.3ZM50.6 220.2a5.5 5.5 0 0 1-6-5.5v-29.1a5.6 5.6 0 0 1 .3-1.9 5.7 5.7 0 0 1 5.8-3.8c21.1 1.6 58.5-38.6 71.3-54.3a5.6 5.6 0 0 1 10 3 103.2 103.2 0 0 1-3 31 67.3 67.3 0 0 0 15-10.3c3.4-3.1 8-7.2 12.7-11.2 9-7.5 10.6-9.2 10.9-9.5a5.9 5.9 0 0 1 7-1.9c3 1.3 4.7 4 5.4 15.8a101.4 101.4 0 0 1-.1 13.8l21.6-6.5a5.6 5.6 0 0 1 7.3 5.6l-.2 10v23a5.7 5.7 0 0 1-5 5.7 5.5 5.5 0 0 1-6-5.4v-26l-18.6 5.7a8.4 8.4 0 0 1-7-.8 8.2 8.2 0 0 1-3.7-8.5 75 75 0 0 0 .5-16.5l-5 4a444 444 0 0 0-12.3 11 79.9 79.9 0 0 1-17 11.8c-9.9 5-13.7 3.9-16 2.4a7 7 0 0 1-2.6-8.4 90.8 90.8 0 0 0 4.2-18.8 316.1 316.1 0 0 1-17.3 17.6c-18.7 17.4-34.6 27-47.3 28.8v23.4a5.7 5.7 0 0 1-4.9 5.8Z"/><path d="M127 321.8a82.3 82.3 0 0 1-82-77.2 25.9 25.9 0 0 1-12.7-6.6c-5-5-7.6-11.8-7.6-20.5 0-12.1 1.8-19.3 5.8-23.3 3.5-3.5 7.8-3.4 10-3.3h.7a5.6 5.6 0 1 1 0 11.2h-.9a5.2 5.2 0 0 0-2 .2c-.4.4-2.4 3-2.4 15.2 0 5.5 1.4 9.6 4.1 12.4 4.2 4.1 10.3 4.1 10.4 4.1a5.6 5.6 0 0 1 5.7 5.6 70.8 70.8 0 1 0 141.6 0v-21.8a6.1 6.1 0 0 1 5.1-5.6c1.3-.2 13.4-2.5 13.4-18.6v-.4c.2-2.2-.3-8.9-3.8-12.6-2-2.2-4.9-3.2-8.7-3.2a5.6 5.6 0 1 1 0-11.2c7 0 12.8 2.3 17 6.7a31 31 0 0 1 6.8 20.8c-.1 17.2-10.3 25.4-18.9 28.4v17.5a81.4 81.4 0 0 1-81.6 82.2Z"/><path d="M127 277.9c-6.3 0-12.4-1.6-19.6-4.8h-.2a5.6 5.6 0 0 1 3-11l.6.2a6.4 6.4 0 0 1 .9.3c10.5 4.8 17.5 5.9 31.8-.2a5.6 5.6 0 0 1 4.4 10.3 52 52 0 0 1-21 5.2Zm231.4 0c-6.2 0-12.3-1.6-19.5-4.8h-.2a5.6 5.6 0 1 1 2.9-11l.7.2a6.4 6.4 0 0 1 .8.3c10.5 4.8 17.6 5.9 31.8-.2a5.6 5.6 0 0 1 4.5 10.3 52 52 0 0 1-21 5.2ZM31 194.7a5.7 5.7 0 0 1-4.4-5.6v-59.2a76 76 0 0 1 10.6-35.7c9.6-16 30-35.2 72.6-35.3a5.8 5.8 0 0 1 5.9 5.1 5.6 5.6 0 0 1-5.5 6.2c-71.4 0-72.5 57.3-72.5 59.7v59.3a5.5 5.5 0 0 1-6.7 5.5Zm188.7-10.8a4.8 4.8 0 0 1-5-5.7v-39C214 101 184.4 70 148 70h-19.7a5.8 5.8 0 0 1-4.2-1.8 5.6 5.6 0 0 1-1.5-4.2 23.4 23.4 0 0 1 17.1-20.3 5.6 5.6 0 1 1 3.2 10.8 11.4 11.4 0 0 0-6.5 4.5H148c42.6-.3 77.3 35.7 77.7 80v39.1a6.2 6.2 0 0 1-6 5.7Z"/><path d="m256.5 453.8-1 12a3.3 3.3 0 0 0 2.6 3.4l10.4 2.1a3.3 3.3 0 0 0 3.4-5l-9.4-14a3.3 3.3 0 0 0-6 1.5Z" class="cls-1"/><path d="M357.6 408a5.6 5.6 0 0 1-4.5-2.1L297 333.5a5.8 5.8 0 0 1 0-7.3 5.6 5.6 0 0 1 8.7.2l51.9 66.9 52.1-66.9a5.6 5.6 0 0 1 8.9 7L362 405.8a5.7 5.7 0 0 1-4.4 2.2Zm-129-61.2a5.6 5.6 0 0 1-3-.9 63.3 63.3 0 0 0-29.6-9.3l-41.2-3.3a5.6 5.6 0 0 1-5.2-5.5V316a5.7 5.7 0 0 1 5-5.8 5.5 5.5 0 0 1 6 5.5v7l36.2 3a74.6 74.6 0 0 1 34.4 10.7 5.7 5.7 0 0 1 2.1 7.6 5.5 5.5 0 0 1-4.7 2.8Z"/><path d="M154.7 371H99a5.8 5.8 0 0 1-4.6-2.2L66 332.1a.6.6 0 0 1-.1-.4c.6-7.1 7.4-8.2 10.3-4.4l24 30.9a4.8 4.8 0 0 0 3.8 1.9h46a4.8 4.8 0 0 0 3.7-1.9l25.7-32.9a.5.5 0 0 1 .3-.2c7-1.2 9.8 5.2 6.8 9l-27.1 34.7a5.8 5.8 0 0 1-4.7 2.3Z"/><path d="M93.3 330s34 25.4 63.4-1.5l-.3-15.2-57.3 2.2Zm232 2.9s33 27.6 62.3.7l-.2-15.2-57.3 2.1ZM283 210.3s102.3-8.8 151.7-45v-19.6S390 180 281.3 179.5Z" class="cls-1"/><path d="M283.6 279.7s-40.5-12.3-31.8-76l-1.5-51.4s3.7-76.8 104.3-84 110 80.3 110 80.3v76.8s-8 49.2-37.6 57.2c0 0 13.7-34.8 10-107.2l-1.4-32.6s-40.5 41.3-152 32.6Z" class="cls-2"/><path d="M434.5 189.2s13.7 69.7 21.7 74.8l-32.6 26s18.1-42.7 10.9-100.8Zm-156-5.1-26.9 60.3s6.5 29.7 37.7 38.4c0 0-12.3-50-10.8-98.7Z" class="cls-3"/><path d="M51.6 202.3s37-5.8 60.3-25.4l-1.5 10.1s36.3-2.9 50-21.8l-4.3 16s19.6 0 29-5.8l20.4-6.5-2.2-13.8-30.5 9.4-1.4-25.4s-32 28.3-52.3 28.3l4.4-26.8-5.8 2.2s-26.1 34.8-66 46.4Z" class="cls-1"/><path d="M113.2 232H78.1a10.4 10.4 0 0 1-10.4-10.4v-30A10.4 10.4 0 0 1 78 181h35.1a10.4 10.4 0 0 1 10.4 10.4v30.1a10.4 10.4 0 0 1-10.4 10.5Zm-34.5-11h33v-29h-33Zm96.5 11h-35.1a10.4 10.4 0 0 1-10.4-10.4v-30A10.4 10.4 0 0 1 140 181h35.1a10.4 10.4 0 0 1 10.4 10.4v30.1a10.4 10.4 0 0 1-10.4 10.5Zm-34.5-11h33v-29h-33Z"/><path d="M135.3 200H118a5.7 5.7 0 0 1-5.8-5 5.5 5.5 0 0 1 5.5-6H135a5.7 5.7 0 0 1 5.8 5 5.5 5.5 0 0 1-5.5 6Z"/><path d="m184 469 .7.1h12.5s14.5-58.1 21.8-89.3l4.1-17a30.8 30.8 0 0 1 6.6-12.5 40.6 40.6 0 0 0 3.8-5.3l-6-1a31.5 31.5 0 0 0-7-5.5l-3 2.1S186 448.6 184 469Z" class="cls-3"/><path d="M357.7 325.4c-25.4 0-45.6-8.6-60-25.7-35.7-42.5-22.5-121.9-21.9-125.2a5.6 5.6 0 1 1 11.1 1.9c-.1.8-13 77.6 19.5 116.1 12 14.4 29.4 21.7 51.3 21.7 19.7 0 35.6-7 47.4-20.6 37.6-43.5 23.9-141 23.8-142A5.6 5.6 0 0 1 440 150c.6 4.2 14.6 103.6-26.4 151a70.7 70.7 0 0 1-55.9 24.4Zm10.4-279.6a5.6 5.6 0 0 1-2.9-.8 233.5 233.5 0 0 0-215-14 5.6 5.6 0 0 1-4.6-10.2A244.8 244.8 0 0 1 371 35.4a5.6 5.6 0 0 1-3 10.4Z"/><path d="M244.3 480A244.4 244.4 0 0 1 0 235.7a5.6 5.6 0 1 1 11.3 0c0 128.5 104.5 233 233 233s233.1-104.5 233.1-233a5.6 5.6 0 0 1 11.3 0A244.4 244.4 0 0 1 244.4 480Z"/><path d="M463.1 336.4a74.7 74.7 0 0 0-33.6-10.2l-36.8-3v-7.3a5.2 5.2 0 0 0-4.6-5.2 5 5 0 0 0-5.5 5v12a5 5 0 0 0 4.7 5l41.5 3.4a64.5 64.5 0 0 1 30.5 9.7ZM92.7 315.9v7.2l-39.7 3a76 76 0 0 0-28.5 7.5l4.8 8.8a67 67 0 0 1 24.4-6.3l44.3-3.3a5 5 0 0 0 4.7-5v-12.2a5 5 0 0 0-5.5-5 5.2 5.2 0 0 0-4.5 5.3Z"/><path d="M227.5 344c-15.5-16.2-42.6-9.9-42.6-9.9-25.4 34.1-58 34.1-58 34.1-36.3 1.5-56.6-34-56.6-34H65a138.3 138.3 0 0 0-39 8.4c10.6 19 37.8 61.5 83.5 95.3l86.9 33.4c7.3-28.9 7.9-28.7 22.5-91.5l4-16.9a30.8 30.8 0 0 1 6.7-12.6 40.6 40.6 0 0 0 3.8-5.3Z" class="cls-2"/></g></g></g></svg>