<svg xmlns="http://www.w3.org/2000/svg" viewBox="0 0 318.4 305.2"><defs><clipPath id="clip-path" transform="translate(7.7)"><path d="m151.6 213.3-21.3 88.3S9.2 271.4 1.5 149.8 54.2 43.5 54.2 43.5l70.5 15.9 21.5 51.6Z" fill="none"/></clipPath><style>.cls-5{opacity:.2}.cls-6{opacity:.5}.cls-9{opacity:.4}</style></defs><g id="Calque_2" data-name="Calque 2"><g id="Calque_1-2" data-name="Calque 1"><g id="Accompagnant"><circle cx="217.8" cy="113.9" r="14.7" stroke-width="4.9" stroke="#000" stroke-linecap="round" stroke-miterlimit="10" fill="none"/><circle cx="256.3" cy="113.9" r="14.7" stroke-width="4.9" stroke="#000" stroke-linecap="round" stroke-miterlimit="10" fill="none"/><path stroke-width="4.9" stroke="#000" stroke-linecap="round" stroke-miterlimit="10" fill="none" d="M243.3 107.3h-10.9"/><path d="M81.7 29.1a3.6 3.6 0 0 1-1.8-6.6 155.7 155.7 0 0 1 143.3-9.3 3.6 3.6 0 1 1-2.9 6.6 148.5 148.5 0 0 0-136.7 8.8 3.6 3.6 0 0 1-1.9.5Zm73.6 276.1A155.4 155.4 0 0 1 0 149.8a3.6 3.6 0 0 1 7.2 0C7.2 231.5 73.6 298 155.3 298s148.2-66.5 148.2-148.2a3.6 3.6 0 0 1 7.2 0 155.4 155.4 0 0 1-155.3 155.4Z" transform="translate(7.7)"/><path d="M163.8 199a3 3 0 0 1-3.2-3V86.9c0-33.5 31-60.7 68.9-60.7s68.8 27.2 68.8 60.7v92.7a3 3 0 0 1-2.8 3 3 3 0 0 1-3.1-3V87c0-30.1-28.2-54.7-63-54.7S166.7 56.8 166.7 87v109a3 3 0 0 1-2.8 3Z" transform="translate(7.7)"/><path d="M225.5 183.8a48.8 48.8 0 0 1-44.4-48.7V90a3.1 3.1 0 0 1 .2-1.1 3 3 0 0 1 3-2c15.6 1.2 42.8-20.5 43-20.8a3 3 0 0 1 5 3c-.3 1.3-2.2 10-5.2 16.3a187.2 187.2 0 0 0 20.6-3.4c15.7-3.4 23.2-6.8 24.9-8.6a3 3 0 0 1 5.2 2l.4 14.7v45.3a48.6 48.6 0 0 1-52.7 48.3ZM187 93.1V135a42.8 42.8 0 0 0 40.3 42.9 42.5 42.5 0 0 0 44.7-42.4V81c-6 3-15.3 5.3-23 7a114 114 0 0 1-27.2 3.5 3.4 3.4 0 0 1-2.7-2.3 3.3 3.3 0 0 1 .7-3.3 30 30 0 0 0 4.5-9.8c-9 6.3-24.8 16.2-37.3 17Zm32.4 159.4a3 3 0 0 1-2.1-.9l-25-24.8a3 3 0 0 1-.5-3.7l5-7.8-10.4-5.4a3 3 0 0 1-1.6-2.3 3 3 0 0 1 .9-2.6l14.7-14a3 3 0 0 1 1-.5l-.8-3a3 3 0 1 1 5.8-1.5l15.9 62.7a3 3 0 0 1-1.5 3.4 3 3 0 0 1-1.4.4Zm-21.1-28.3 15.5 15.5L203 197l-10 9.5 9.5 5a3 3 0 0 1 1.2 4.2Zm43.4 28.3a3 3 0 0 1-1.5-.4 3 3 0 0 1-1.4-3.4l15.8-62.7a3 3 0 1 1 5.9 1.5l-.8 3a3 3 0 0 1 1 .6l14.7 13.9a3 3 0 0 1 .9 2.6 3 3 0 0 1-1.6 2.3l-10.4 5.3 4.9 7.8a3 3 0 0 1-.4 3.8l-25 24.8a3 3 0 0 1-2.1 1Zm16.4-55.5-10.8 42.7 15.5-15.4-5.4-8.6a3 3 0 0 1 1.2-4.3l9.5-4.9Z" transform="translate(7.7)"/><path d="M139 281.4a3 3 0 0 1-3-3.8l15-67c2.9-14 17.4-24.7 35.1-25.9L210 183v-4.4a3.1 3.1 0 0 1 2.9-3.1 2.9 2.9 0 0 1 3 3v7.3a2.8 2.8 0 0 1-2.6 3l-26.8 2c-15.1 1-27.3 9.6-29.7 21L141.9 279a3 3 0 0 1-2.9 2.4Zm91-47.8a29.1 29.1 0 0 1-19-7.2 3 3 0 0 1 4.2-4.4c.5.6 13 12 30.3.4a3 3 0 1 1 3.3 5c-7 4.7-13.4 6.2-18.7 6.2Z" transform="translate(7.7)"/><g class="cls-5"><path d="M186.6 100.8s19.3-7.9 28.1-9.5l-2.3 8.6s36.7-2 62.6-14.7l.9-9.8-16 5.7-28.7 6.3-7.4.5 2.2-7 1.8-5.5c.3-1 1 10.3 1 10.3L225 73.8s-6-.8-7 .2-.3 3.2-4.2 4-4.3.8-7.4 2.8-3.4 1.4-6 2.9l-4.7 3c-1 .5-3.2 2-3.2 2a5.2 5.2 0 0 1-2.1.5c-.7-.1-1.6.4-2 .4a25.8 25.8 0 0 0-3.6 2Zm65.4 85.3h-.6l-5.1-.6h-.6a19.5 19.5 0 0 0 1.3-5.2c.1-3.2-35 .4-35 .4a29.3 29.3 0 0 0 1.7 5l-3.8.4-.5.1a4 4 0 0 0-3.3 4.8l12.9 56.2a4 4 0 1 0 7.7-2l-13.1-45.8a4 4 0 0 1 1.3-4.2l3.1-2.5.1-.1a16.3 16.3 0 0 0 10.9 5.6c6.3.5 10.6-2.7 13.4-6.6a3.9 3.9 0 0 0 1 1.1l3 2.5a4 4 0 0 1 1.3 4.2l-13 45.9a4 4 0 1 0 7.6 2l13-56.3a4 4 0 0 0-3.3-4.9Z" transform="translate(7.7)"/><path d="M181 139.6V187l32-1.3 1.7-9S187 158.4 181 139.5Zm100.2 1a2655 2655 0 0 0-4.4-61.7l-3.6 69.1 1.6 3.9a122.6 122.6 0 0 1-27 24.7l1.8 9 31.9 1.4v-47.4l-.3 1ZM276 209l-5.2 7.8 2.5 3.8a8 8 0 0 1-2.6 11.2l-22.6 13.9 19.3-21.6-4.3-9.5Zm-90.8 0 5.2 7.8-2.5 3.8a8 8 0 0 0 2.6 11.2l22.6 13.9-19.3-21.6 4.3-9.5Zm44.2-140.4s8 10.4 6.6 18.8l-13.9.1Z" transform="translate(7.7)"/><path d="m171.3 87.4 8 104-8 4.6V87.4z"/></g><path d="M229.5 156.5a27.5 27.5 0 0 1-11.4-2.8h-.2a3 3 0 0 1 1.6-5.8h.4a2.9 2.9 0 0 1 .4.2c6.3 3 10.6 3.6 19.2 0a3 3 0 0 1 2.4 5.5c-4.7 2-8.6 3-12.4 3Z" transform="translate(7.7)"/><path d="m165.9 194.8-2.2-107.4s7-54 66-58.3S306.1 81 294 131.8v48s-12-5.7-12 7.2l-34.6-1.3.9-7.3s29.3-8.2 28-50.9-.9-53-.9-53-25 14.6-52 13.7l7.2-19.8c.8-2.2-23.8 19.2-46.2 20.9 0 0-13.4 76.6 29 89.1v7.4s-27.3 1.3-47.5 9Z" transform="translate(7.7)" class="cls-6"/><path d="m265.2 196-10.3 44.9 19.4-16.4-6.5-9.9 8.2-8.2-10.8-10.4zm-53.4 0 10.3 44.9-19.4-16.4 6.5-9.9-8.2-8.2 10.8-10.4z" class="cls-6"/><g clip-path="url(#clip-path)"><path d="M52.7 171.4a14.9 14.9 0 1 1 14.9-14.9 14.9 14.9 0 0 1-14.9 15Zm0-24.2a9.3 9.3 0 1 0 9.3 9.3 9.3 9.3 0 0 0-9.3-9.3ZM90 171.4a14.9 14.9 0 1 1 15-14.9 14.9 14.9 0 0 1-15 15Zm0-24.2a9.3 9.3 0 1 0 9.4 9.3 9.3 9.3 0 0 0-9.3-9.3Z" transform="translate(7.7)"/><path d="M76.8 155.9H65.2a2.8 2.8 0 1 1 0-5.6h11.5a2.8 2.8 0 1 1 0 5.6Z" transform="translate(7.7)"/><path d="M66.5 221.6a45 45 0 0 1-39.3-44.8v-40.2a2.8 2.8 0 1 1 5.6 0v40.3a39.2 39.2 0 1 0 78.4.3v-40.6l.1-13.5a2.8 2.8 0 0 1 2.8-2.8s2.8 1.2 2.4 2.7l.4 13.5v40.6a44.8 44.8 0 0 1-50.4 44.5Z" transform="translate(7.7)"/><path d="M148.7 283.2a2.8 2.8 0 0 1-2.7-2.2l-7-33.6c-2.3-10.5-13.6-18.6-27.6-19.5L88.1 226a2.8 2.8 0 0 1-2.6-2.8v-6.7a2.8 2.8 0 1 1 5.6 0v4.1l20.7 1.7c16.5 1.1 29.9 11 32.6 24l7 33.5a2.8 2.8 0 0 1-1.4 3 3 3 0 0 1-1.3.4Zm-153.7 0a3 3 0 0 1-1.3-.3 2.8 2.8 0 0 1-1.4-3.1l7-33.6c2.8-13 16.2-22.8 32.7-23.9l22.2-1.7v-4.1a2.8 2.8 0 0 1 2.2-2.8 2.8 2.8 0 0 1 3.5 2.7v6.8a2.8 2.8 0 0 1-2.6 2.8l-24.9 1.9c-14 1-25.3 9-27.5 19.5L-2.2 281a2.8 2.8 0 0 1-2.7 2.2Zm77-85.4a25.4 25.4 0 0 1-10.6-2.6h-.1a2.8 2.8 0 0 1 1.4-5.4l.4.1a3.1 3.1 0 0 1 .4.2c5.9 2.6 9.8 3.2 17.7-.2a2.8 2.8 0 0 1 2.2 5.1 28.5 28.5 0 0 1-11.4 2.8Z" transform="translate(7.7)"/><path d="M73.2 254.8c-10.9 0-19.3-3-25.1-9a28.5 28.5 0 0 1-7.9-18.9 2.8 2.8 0 0 1 5.6.1 23.2 23.2 0 0 0 6.3 15c4.7 4.8 11.8 7.2 21 7.2s16.3-2.4 20.9-7.1c6-6.4 5.8-15 5.7-15a2.8 2.8 0 0 1 5.6-.3c0 .4.4 11-7.3 19-5.6 6-14 9-24.8 9Z" transform="translate(7.7)"/><path d="M7.5 265.6h145.3l3.1 12.5H4.5l3-12.5zm0 22.4h145.3l3.1 12.5H4.5l3-12.5z" class="cls-6"/><path d="M140.5 243.8H93.9c-3.3 3.6-11.6 6.2-21.3 6.2s-18-2.6-21.4-6.2H3L.2 256.3h143.1ZM8.3 234.6H43v-10a45.5 45.5 0 0 0-34.7 10Z" transform="translate(7.7)" class="cls-6"/><path d="m30.5 169.5-4.5-6c-16.2-22-16-40.9-13-53a53.5 53.5 0 0 1 9.8-19.9 21.8 21.8 0 0 0-9-8.2A5.6 5.6 0 0 1 15 72a53.8 53.8 0 0 1 24.1-.6 37.4 37.4 0 0 0-3.7-2.8 5.8 5.8 0 0 1-2.6-5.8 5.6 5.6 0 0 1 5-4.6A41.4 41.4 0 0 1 69.9 69c21.3.2 37.3 5.3 47.4 15 9.3 9 13.8 21.8 13.8 39 0 31.2-14.8 42.6-15.4 43l-4.5 3.4v-42.7c-5.2 1.4-14.9 4-20.9 4.8a4.3 4.3 0 0 1-4.6-3 4.4 4.4 0 0 1 .7-3.9l.2-.3a102 102 0 0 1-32.1 9.4 4.3 4.3 0 0 1-4.5-3.4 4.4 4.4 0 0 1 1-3.8l5-6a66 66 0 0 0-8.6 2.3c-9.5 3.4-14.4 8-14.4 13.7v.2Zm86.3-50.3v37.2a58.4 58.4 0 0 0 8.8-33.5c0-15.5-4-27-12.2-34.9-9.2-9-24.2-13.5-44.6-13.5h-1.2l-.8-.9c-.1 0-11.2-11.6-28.4-9.8h-.1c6.2 4 9.4 7.8 9.8 11.5l.6 4.3-4.1-1.3a57 57 0 0 0-28-1 .1.1 0 0 0 0 .1c7 4.2 11.1 8.6 12 13.2L29 92l-1 1a47 47 0 0 0-9.5 19 53.5 53.5 0 0 0 7.7 41.5l1.4-17.3c0-19.3 33.6-22.4 35-22.5l6.7-.6-12 14.5c16.9-2.3 37-13.4 37.2-13.6l11.3-6.3-13.1 17.8c8.3-1.6 20.4-5.2 20.6-5.2Z" transform="translate(7.7)"/><path d="M30.4 136.6 29 155a2.4 2.4 0 0 1-4.4 1c-21.2-33.7-3.4-58.8.7-64a2.4 2.4 0 0 0 .3-2.3c-1.7-4.5-7.2-8.2-11.2-10.3a2.4 2.4 0 0 1 .4-4.3 51 51 0 0 1 25.3-.7 2.4 2.4 0 0 0 2.1-4 38.5 38.5 0 0 0-6.4-4.8 2.4 2.4 0 0 1 1-4.4 38.8 38.8 0 0 1 31.5 10 2.3 2.3 0 0 0 1.6.6c44.1.3 58.6 21.2 58.6 51.2 0 19.1-5.8 30.5-10 36.2a2.4 2.4 0 0 1-4.3-1.5v-31.6a2.4 2.4 0 0 0-3-2.3c-4.4 1.2-12.8 3.5-18.9 4.5a2.4 2.4 0 0 1-2.3-3.7 2.4 2.4 0 0 0-2.9-3.6c-7.9 3.6-19.8 8.4-30.4 9.6a2.4 2.4 0 0 1-2.1-4l4.4-5.3a2.4 2.4 0 0 0-2.3-3.8c-9.4 1.7-26.2 6.6-26.3 18.8Z" transform="translate(7.7)" opacity=".6"/><path d="M54.9 225.4s4 9.1 17 9.1c0 0 14-1.2 16.3-9.1l-2.4-6.4-28.5-.8Z" transform="translate(7.7)" class="cls-5"/><path d="M117.2 224.3a31 31 0 0 1-12-2.2h-2.5v12.5H134a179.8 179.8 0 0 0-15.5-10.3Z" transform="translate(7.7)" class="cls-6"/><path d="m32.1 136.5 11.1-7.5s-3.5 9.1 10.7 7.5 28.5-3.5 28.5-3.5l1.4 2a5 5 0 0 0 5 2.2l23.7-3.9v-8L88.4 129l-1.2-3.6 1.2-2.4s-32.1 13-36.5 8.7v-5.5l5.2-6.4s-23.4 2.8-25 16.7Z" transform="translate(7.7)" class="cls-5"/><path d="M28.4 228.2V283h13.2v-56.5l-13.2 1.7zm90.2 0V283h13.2v-56.5l-13.2 1.7z"/><path d="M131.8 241.4v54.8h-13.2v-56.6l13.2 1.8z"/><path d="M128 211.7v19.2a8.8 8.8 0 0 1 0 1l5.2 2.4a15.8 15.8 0 0 0 .4-3.4v-19.2c0-7.4-5-13.3-11.3-13.3h-11a66.8 66.8 0 0 1-4.3 6.6h15.3c3.2 0 5.7 3 5.7 6.7Zm-113 22a7.4 7.4 0 0 1-1.6-4.8v-17.2c0-3.7 2.6-6.7 5.7-6.7h22.4a74.4 74.4 0 0 1-4-6.6H19c-6.2 0-11.3 6-11.3 13.3V229a14.9 14.9 0 0 0 2 7.3c1.4-.8 3.2-1.7 5.3-2.6Z" transform="translate(7.7)"/><path d="M17.4 149.3c.5-2.5 9.1-43.8 46.6-35.7a.2.2 0 0 1 0 .5c-7.7 1.2-40.4 5-35.4 46.6 0 .2-.3.4-.4.2l-10.7-11.4a.2.2 0 0 1 0-.2Z" transform="translate(7.7)" class="cls-9"/><path d="m122.9 123 9.9 15.9-9.9 26.6V123z" class="cls-9"/><path d="M62 121.4s23.4-10.7 42.9-13l-22.7 17-27.3 7.2.9-7.5Z" transform="translate(7.7)" class="cls-9"/><path d="M37.5 227h10.2v56H37.5zm74.7 13.2h10.2v56h-10.2zm-63.1-35.4L27.3 227l36.5-5-3.5-5.3-11.2-11.9zm61.5 0 21.8 22.2-36.4-5 3.5-5.3 11.1-11.9z" class="cls-5"/><path d="m102.5 111.1-.6 4a3.4 3.4 0 0 0 3 4l11.5 1.5-25.8 9.1-.4-5.1Z" transform="translate(7.7)" class="cls-9"/></g><path d="m299.1 205.3 2.5-6.9a41.5 41.5 0 0 0-29.2-13.7l-22.2-1.8v-4.5a3.1 3.1 0 0 0-3-3 2.8 2.8 0 0 0-3 3v7.3a2.7 2.7 0 0 0 2.7 3l25 2h.1c12 .8 22.3 6.5 27.1 14.6Z" transform="translate(7.7)"/></g></g></g></svg>