<svg xmlns="http://www.w3.org/2000/svg" viewBox="0 0 482.1 500"><defs><style>.cls-1{opacity:.5}.cls-3{opacity:.2}.cls-4{opacity:.4}</style></defs><g id="Calque_2" data-name="Calque 2"><g id="Calque_1-2" data-name="Calque 1"><g id="élèves"><path d="M206.7 236.6a31 31 0 1 1 31-31 31.1 31.1 0 0 1-31 31Zm0-50.6a19.5 19.5 0 1 0 19.5 19.5 19.5 19.5 0 0 0-19.5-19.5Zm78 50.6a31 31 0 1 1 31-31 31.1 31.1 0 0 1-31 31Zm0-50.6a19.5 19.5 0 1 0 19.5 19.5 19.5 19.5 0 0 0-19.5-19.5Z"/><path d="M257.2 204.7h-24.8a6 6 0 0 1-5.7-4 6 6 0 0 1 5.7-8h24.8a6 6 0 0 1 5.7 4 6 6 0 0 1-5.7 8Z"/><path d="M249.1 341.7c-52.2.9-94.7-42-94.7-94.3v-83.6a5.7 5.7 0 0 1 5-5.8 5.5 5.5 0 0 1 6 5.5v84a82.2 82.2 0 0 0 83 82.6 81.6 81.6 0 0 0 80-81.5v-86l.2-26.4a5.4 5.4 0 1 1 10.8.1l1 27.4v85a93.1 93.1 0 0 1-91.3 93Z"/><path d="M247 291.6c-7 0-14-1.8-22-5.4l-.3-.1a5.8 5.8 0 1 1 3-11.2l.8.2a6 6 0 0 1 .8.3c12.2 5.5 20.4 6.8 36.8-.3a5.8 5.8 0 1 1 4.6 10.7 59 59 0 0 1-23.7 5.8Zm2.3 118.9c-22.6 0-40.2-6.2-52.4-18.5a59.5 59.5 0 0 1-16.3-39.6 5.8 5.8 0 0 1 11.6.2c0 .2 0 18.1 13.1 31.3 9.9 10 24.7 15 44 15s34-5 43.5-15c12.7-13.2 12-30.9 12-31a5.8 5.8 0 1 1 11.6-.6c0 1 .9 22.8-15.2 39.7-11.7 12.3-29.2 18.5-51.8 18.5Z"/><path d="M389.2 387.7h-96.8c-6.9 7.6-24.1 13-44.3 13s-37.4-5.4-44.3-13h-100l-6 26h297.4Zm-275.3-20h72.5V347c-37-3-60 9.9-72.5 20.7Z" class="cls-1"/><path d="m159.9 232.7-9.3-12.6c-33.8-45.9-33.4-85.4-27-110.6A112.2 112.2 0 0 1 144 68c-2.4-5.4-9-11.5-18.9-17.2a11.8 11.8 0 0 1 2.5-21.4c17.3-5.4 37.2-3.6 50.4-1.3a85.2 85.2 0 0 0-10.5-7.5 4.2 4.2 0 0 1-1.7-1.9c-3.9-9.3 1.5-17.3 9.3-18.1a86.1 86.1 0 0 1 67.2 22.3c44.5.4 77.8 11 98.9 31.5 19.4 18.9 28.8 45.4 28.8 81.2 0 65.1-30.9 89-32.2 90l-9.2 7v-89.3a379 379 0 0 1-43.6 10c-5.8.8-11.4-4.1-10-11.5a3.1 3.1 0 0 1 .5-1.2l1.7-2.4c-18 8.1-44 18-67 19.6-5.9.4-11.1-5-9.3-12.2a3 3 0 0 1 .6-1.2l11.7-14a138.1 138.1 0 0 0-18 4.9c-19.8 6.9-29.9 16.5-29.9 28.5v.4ZM340.4 128v77.7c8-11.8 18.3-33.9 18.3-70 0-32.4-8.3-56.3-25.3-72.8-19.2-18.7-50.6-28.2-93.2-28.2h-2.5l-1.7-1.9c-.2-.2-23.3-24.3-59.3-20.5a.4.4 0 0 0-.2 0 .5.5 0 0 0 0 .2c13 8.5 19.7 16.3 20.6 24l1.1 8.8-8.5-2.6c-.3 0-33.4-9.9-58.4-2.1a.3.3 0 0 0 0 .2c14.7 8.7 23.2 18 25.1 27.6l.6 2.9-2 2.2c-.1 0-13.8 15-19.9 39.7-7 28.4-1.6 57.5 16.2 86.7l2.8-36.2c.3-40.3 70.2-46.7 73.2-47l13.9-1.2-25.2 30.2c35.3-4.6 77.3-28 77.7-28.2l23.7-13.3L290 141a536.4 536.4 0 0 0 43-10.8Z"/><path d="m159.6 163.8-3 38.8a5 5 0 0 1-9.1 2.2c-44.2-70.5-7.2-123 1.4-133.6a4.9 4.9 0 0 0 .8-4.9c-3.7-9.3-15.2-17.1-23.5-21.7a5 5 0 0 1 .8-9c18-6.4 39.9-3.9 52.9-1.3a5 5 0 0 0 4.3-8.5 81.2 81.2 0 0 0-13.3-10 5 5 0 0 1 1.8-9.1 80.8 80.8 0 0 1 66 20.6 5 5 0 0 0 3.3 1.3c92 .7 122.2 44.4 122.2 107 0 40-12 63.6-20.8 75.5a5 5 0 0 1-9-3v-66a5 5 0 0 0-6.3-4.7c-9.3 2.5-26.8 7.3-39.4 9.5a5 5 0 0 1-4.8-7.9 5 5 0 0 0-6-7.5 225.7 225.7 0 0 1-63.6 20 5 5 0 0 1-4.4-8l9.3-11.3a5 5 0 0 0-4.7-8c-19.7 3.7-54.8 13.8-55 39.4a2.7 2.7 0 0 1 .1.2Z" opacity=".6"/><path d="M211.2 349.2s8.3 19 35.7 19c0 0 29-2.4 34-19l-5-13.2-59.7-1.7Z" class="cls-3"/><path d="M340.6 346.4a64 64 0 0 1-24.8-4.7h-5.4v26h65.2a372.7 372.7 0 0 0-32.2-21.4h-2.8Z" class="cls-1"/><path d="m163 163.7 23.2-15.8s-7.5 19.1 22.4 15.8 59.8-7.5 59.8-7.5l2.8 4.3a10.6 10.6 0 0 0 10.5 4.6l49.7-8v-16.6l-50.6 7.4-2.5-7.4 2.5-5s-67.2 27.3-76.4 18.2v-11.6l10.8-13.3s-49 5.8-52.3 34.9Z" class="cls-3"/><path d="M140.4 355.1v122.6h27V351.4l-27 3.7zm188 .3v114.3h27v-118l-27 3.7z"/><path d="M355.4 355.8v112.9l-27 8.2V352.1l27 3.7zm8-34.8v40.8a16.2 16.2 0 0 1-.1 2.2l11.4 5a33.3 33.3 0 0 0 .7-7.2V321c0-15.6-10.9-28.3-24.2-28.3h-23.8a144.8 144.8 0 0 1-9.1 14h32.9c6.7 0 12.2 6.4 12.2 14.3ZM128 367.7a15.6 15.6 0 0 1-3.5-10V321c0-7.9 5.5-14.3 12.2-14.3h48c-3.6-5-6.5-9.8-8.8-14h-39.2c-13.4 0-24.3 12.7-24.3 28.3v36.6a31.5 31.5 0 0 0 4.1 15.7c3.3-1.7 7.1-3.6 11.5-5.6Z"/><path d="M133 190.3c1-5.2 19-91.2 97.2-74.4a.5.5 0 0 1 0 1c-16.1 2.6-84.4 10.3-74 97.2.1.5-.4.9-.8.5l-22.3-23.8a.5.5 0 0 1-.1-.5Zm204.4-54.8 20.8 33.1-20.8 55.5v-88.6zm-111.2-3.3s48.8-22.4 89.4-27.3l-47.2 35.4-57.2 15.2 1.9-15.6Z" class="cls-4"/><path d="M168.5 355h22v133h-22zm156-1h22v127h-22zm-141.4-47.8-45.6 46.4 76.1-10.5-7.3-11.1-23.2-24.8zm128.3 0 45.5 46.4-76.1-10.5 7.4-11.1 23.2-24.8z" class="cls-3"/><path d="m310.6 110.7-1.3 8.4a7.2 7.2 0 0 0 6.2 8.3l24.1 3.1-53.8 19-.8-10.7Z" class="cls-4"/><path d="M411.5 88.5a243.4 243.4 0 0 0-37-30.4 5.9 5.9 0 0 0-7.9 1.1 5.9 5.9 0 0 0 1.4 8.6 229.5 229.5 0 0 1 102.6 188.7 230 230 0 0 1-237.2 231.8A229.6 229.6 0 0 1 118.6 65a5.9 5.9 0 0 0 1.1-9 5.9 5.9 0 0 0-7.4-1A241.8 241.8 0 0 0 0 263a240.8 240.8 0 0 0 102.2 193.3 232.8 232.8 0 0 0 97.8 40.4 241.4 241.4 0 0 0 240.5-101.8 231.6 231.6 0 0 0 38-93.4 240.9 240.9 0 0 0-67-213Z"/><path d="M328.6 354.8c29 1.9 52.4 18.5 57 40.4l7.9 37.5 10-8.2-6.5-31.7c-5.7-27-33.4-47.3-67.6-49.6l-43-3.5V331a5.5 5.5 0 0 0-5.5-5.8 6.8 6.8 0 0 0-6.4 5.8v14a6.9 6.9 0 0 0 6 5.9l48 3.9Z"/><path d="M152.5 478.7a258 258 0 0 0 170.7 0Z" class="cls-1"/><path d="M215.4 325.2a6 6 0 0 0-6 5.8v8.7l-45.9 3.5c-34 2.3-61.9 22.7-67.6 49.6l-9.4 45 10.1 8.2 10.7-50.8c4.6-21.9 28-38.5 57-40.4l51.5-3.9a6.3 6.3 0 0 0 5.6-5.8V331a6.2 6.2 0 0 0-6-5.8Z"/><path d="m96.9 433.7-3.1 12.8 22.5 13.2h244.2l32.1-26H96.9z" class="cls-1"/></g></g></g></svg>