<?xml version="1.0" standalone="no"?>
<!DOCTYPE svg PUBLIC "-//W3C//DTD SVG 20010904//EN"
 "http://www.w3.org/TR/2001/REC-SVG-20010904/DTD/svg10.dtd">
<svg version="1.0" xmlns="http://www.w3.org/2000/svg"
 width="700.000000pt" height="700.000000pt" viewBox="0 0 700.000000 700.000000"
 preserveAspectRatio="xMidYMid meet">
<metadata>
Created by potrace 1.11, written by Peter Selinger 2001-2013
</metadata>
<g transform="translate(0.000000,700.000000) scale(0.100000,-0.100000)"
fill="#000000" stroke="none">
<path d="M3235 6994 c-16 -2 -77 -9 -135 -15 -988 -104 -1921 -667 -2492
-1504 -313 -459 -503 -958 -585 -1535 -25 -179 -25 -701 0 -880 60 -420 167
-772 347 -1130 451 -899 1257 -1554 2240 -1819 419 -113 955 -142 1408 -76
347 51 695 161 1027 324 876 432 1525 1197 1810 2136 99 328 145 644 145 1005
0 556 -115 1048 -359 1545 -346 702 -895 1251 -1596 1596 -402 197 -802 310
-1245 349 -105 9 -494 12 -565 4z m605 -2438 c218 -56 392 -192 484 -378 71
-146 86 -236 93 -568 11 -540 -31 -735 -199 -915 -121 -130 -247 -201 -413
-232 -117 -22 -345 -14 -440 17 -201 64 -361 199 -445 374 -79 164 -95 298
-87 739 6 331 13 392 62 523 84 224 303 402 552 449 93 18 309 13 393 -9z
m-2237 -516 c180 -283 332 -519 338 -524 5 -6 9 186 9 517 l0 527 255 0 255 0
0 -1050 0 -1050 -222 2 -221 3 -328 514 c-180 282 -332 518 -338 524 -8 8 -11
-134 -11 -516 l0 -527 -255 0 -255 0 0 1050 0 1050 222 -2 222 -3 329 -515z
m4567 295 l0 -225 -257 -2 -258 -3 -3 -822 -2 -823 -250 0 -250 0 -2 823 -3
822 -257 3 -258 2 0 225 0 225 770 0 770 0 0 -225z"/>
<path d="M3525 4107 c-88 -36 -140 -93 -164 -182 -21 -78 -33 -399 -22 -595
11 -202 25 -265 70 -327 93 -129 322 -131 418 -4 48 63 62 125 75 332 13 213
-1 518 -27 605 -35 118 -115 177 -245 181 -42 1 -88 -3 -105 -10z"/>
</g>
</svg>
