<svg xmlns="http://www.w3.org/2000/svg" viewBox="0 0 500 500"><defs><style>.cls-1{opacity:.15}.cls-3{opacity:.7}</style></defs><g id="Calque_2" data-name="Calque 2"><g id="Calque_1-2" data-name="Calque 1"><g id="Direction"><path d="M167 221.2a5.5 5.5 0 0 1-6-5.4v-32a5.4 5.4 0 0 1 .3-1.9 5.6 5.6 0 0 1 5.7-3.7h1.4c23.7 0 63.8-43 77.5-60a5.6 5.6 0 0 1 9.8 3 112.4 112.4 0 0 1-4.2 37c6.6.1 20.3-1 37.1-4 25.8-4.8 38.5-10.5 41.7-14a5.3 5.3 0 0 1 3-1.8 5.6 5.6 0 0 1 6.7 5.6v6.5l1 11V187a5.7 5.7 0 0 1-3.4 5.3 6 6 0 0 1-8.6-5.5v-25.4l.1-7a175.4 175.4 0 0 1-39.7 11.1c-6.4 1.2-39 6.7-46.9 2a6.5 6.5 0 0 1-3-7.9 100.9 100.9 0 0 0 4.8-22.6 343.4 343.4 0 0 1-20.2 20.7c-20.7 19.2-38.2 29.8-52 31.5v26.3a5.7 5.7 0 0 1-5.1 5.7Z"/><path d="M251 333a89.8 89.8 0 0 1-89.6-84.8 28.1 28.1 0 0 1-14-7.2 29.7 29.7 0 0 1-8.3-22c0-13.3 2-21 6.3-25.2 3.7-3.7 8-3.6 10.6-3.6h.7a5.6 5.6 0 0 1 0 11.2h-1c-1.7 0-2.2 0-2.5.3-.7.7-2.9 3.9-2.9 17.3 0 6.2 1.6 10.9 4.8 14 4.8 4.7 11.6 4.7 11.7 4.7a5.6 5.6 0 0 1 4 1.6 5.6 5.6 0 0 1 1.6 4 78.6 78.6 0 0 0 78.6 78.5 79.3 79.3 0 0 0 79-78.6v-24a4.8 4.8 0 0 1 4.4-5.6c1.5-.2 15.2-2.8 15.2-21v-.3c0-.1.5-9.2-4.3-14.3-2.4-2.5-5.6-3.7-10-3.7a5.6 5.6 0 1 1 0-11.2c7.5 0 13.6 2.5 18.1 7.3a33 33 0 0 1 7.4 22.4c0 18.9-11.4 27.7-19.8 30.8v19.7a90.2 90.2 0 0 1-90 89.6Zm150.1 112.8a5.6 5.6 0 0 1-5.5-4.5l-11.3-57c-4.1-20-39.2-37-67.7-38.8a5.6 5.6 0 0 1 .7-11.2 119.7 119.7 0 0 1 48.3 14.3c16.5 9.2 27 21 29.7 33.4l11.3 57.1a5.6 5.6 0 0 1-4.4 6.6 5.7 5.7 0 0 1-1 0Zm-297.4 2.4a5.4 5.4 0 0 1-1.2-.1 5.6 5.6 0 0 1-4.3-6.6l12-59.4c2.7-12.5 13.2-24.3 29.8-33.5a119.6 119.6 0 0 1 48.2-14.3 5.6 5.6 0 1 1 .8 11.2c-28.5 1.8-63.6 18.9-67.8 38.8l-12 59.4a5.6 5.6 0 0 1-5.5 4.5Z"/><path d="M251 284.6a51 51 0 0 1-21.3-5.2h-.3a5.6 5.6 0 0 1 3-10.9l.6.2a5.2 5.2 0 0 1 1 .3c11.6 5.4 19.5 6.6 35.3-.2a5.6 5.6 0 0 1 4.4 10.3 57.3 57.3 0 0 1-22.8 5.5Zm-31.3 112.1a5.7 5.7 0 0 1-.8 0 5.6 5.6 0 0 1-4.2-3c-.2-.4-16.8-33.3-30.2-51.9a5.6 5.6 0 0 1 2.5-8.5l26.7-10.3a5.6 5.6 0 0 1 5.8 1l34.3 31.2a5.6 5.6 0 0 1 .2 8L223.8 395a5.5 5.5 0 0 1-4 1.7Zm-22.1-55.5c9 13.6 18.5 30.9 23.5 40.4l21-22-27.6-25Z"/><path d="M287 396.7a5.6 5.6 0 0 1-4-1.7l-30.3-31.9a5.6 5.6 0 0 1 .3-8l34.3-31.1a5.5 5.5 0 0 1 5.8-1l26.7 10.3a5.6 5.6 0 0 1 2.5 8.5 474 474 0 0 0-30.3 51.8 5.6 5.6 0 0 1-4.1 3 5.8 5.8 0 0 1-.8.1Zm-22.3-37.1 21 22c5-9.5 14.4-26.8 23.5-40.4l-17-6.6Zm-47 133.2a5.6 5.6 0 0 1-5.4-4.3l-34-144a5.6 5.6 0 0 1 11-2.5L223 486a5.6 5.6 0 0 1-4.1 6.7 5.1 5.1 0 0 1-1.3.1Z"/><path d="M286.3 497.6a6 6 0 0 1-1.3-.1 5.6 5.6 0 0 1-4.2-6.7l34-148.7a5.6 5.6 0 0 1 10.8 2.4l-33.9 148.8a5.6 5.6 0 0 1-5.4 4.3ZM147 192.3a5.7 5.7 0 0 1-5-5.8v-64a80.3 80.3 0 0 1 11.6-38.2c10.6-17.4 33-38 80-38a5.7 5.7 0 0 1 5.8 5 5.5 5.5 0 0 1-5.5 6c-33.8 0-57.7 11-71 32.7a69.5 69.5 0 0 0-10 32.6v64.2a5.5 5.5 0 0 1-5.9 5.5Zm205-12.8a5.7 5.7 0 0 1-5-5.8v-42c0-41.7-32.4-75.5-72.2-75.5h-21a5.7 5.7 0 0 1-5.7-5 5.5 5.5 0 0 1 5.4-6H275c45.8 0 83.1 38.7 83.1 86.4V174a5.5 5.5 0 0 1-6 5.5Zm-128.2 52.7h-25.4a22.5 22.5 0 1 1-.3-45h25.4c10.7 0 20.2 7.3 22.3 17.8a22.5 22.5 0 0 1-22 27.2Zm-25.5-34a11 11 0 0 0-10.9 12 11.2 11.2 0 0 0 11.3 10h24.4a11.2 11.2 0 0 0 11.4-10 11 11 0 0 0-11-12Zm102 34H275a22.5 22.5 0 1 1-.3-45H300a22.5 22.5 0 1 1 .3 45Zm-25.4-34a11 11 0 0 0-11 12 11.3 11.3 0 0 0 11.3 10h24.4a11.3 11.3 0 0 0 11.4-10 11 11 0 0 0-11-12Z"/><path d="M258.4 210.2H241a5.7 5.7 0 0 1-5.8-5 5.5 5.5 0 0 1 5.5-6h17.6a5.7 5.7 0 0 1 5.7 5 5.5 5.5 0 0 1-5.5 6Z"/><path d="M170.2 199s48.6-11.2 63-28.7c0 0 45.8 15 101.8 5.5l.2-31.8-32.7 13.2s-47.6 10.4-54.9 6.2 3.5-35.8 3.5-35.8l-4-1.6s-31.5 41.9-80.1 57.8Zm101.3 144.5s-31 2.8-40.6-1.4l-11.2-17h16.7l30.3 3.3 21.4-9.4-2.5 14.3Z" class="cls-1"/><path d="m359.4 449.9 1.2 13a3.6 3.6 0 0 1-2.9 3.8l-11.4 2.4a3.6 3.6 0 0 1-3.7-5.5l10.2-15.4a3.6 3.6 0 0 1 6.6 1.7Zm-213.2 2.4-1.2 13a3.6 3.6 0 0 0 2.8 3.8l11.5 2.4a3.6 3.6 0 0 0 3.7-5.5l-10.3-15.4a3.6 3.6 0 0 0-6.5 1.7Z" opacity=".5"/><path d="m149.1 234.8 12.9-25.5V199l-15.1-6.4 2.2 42.2zM333 190.2l10.4 23.1 9.6-16.7-4-14.4-8.8-10.3-7.2 3.9v14.4z" class="cls-1"/><path d="M485.1 251.6a4 4 0 0 0-2.5-4.4l-10.6-4.4a1 1 0 0 1-.6-.8l-.6-6.8a1 1 0 0 1 .2-.6l7.6-10a4 4 0 0 0 .1-4.8l-6.6-10a4 4 0 0 0-4.6-1.7l-10.8 3.4a1.5 1.5 0 0 1-1.5-.4l-4.6-4.7a1.5 1.5 0 0 1-.4-1.2l1.3-12a4 4 0 0 0-3-4.4l-11.7-3.2a4 4 0 0 0-4.5 1.7l-6.4 9.7a1.5 1.5 0 0 1-1.4.7l-6.7-.5a1.5 1.5 0 0 1-1-.5l-8.6-9.6a4 4 0 0 0-4.8-1l-9.8 4.5a4 4 0 0 0-2.3 4l.8 11.4a1 1 0 0 1-.4.9l-5 4.4a1 1 0 0 1-1 .2l-11.6-3.1a4 4 0 0 0-4.6 2l-6.2 10.8a4 4 0 0 0 .8 5l8.4 7.6a1 1 0 0 1 .4 1l-2.2 8.2a1 1 0 0 1-.5.7l-10.2 5a4 4 0 0 0-2.2 4.5l2.7 12a4.1 4.1 0 0 0 3.8 3.2l11.8.5a1.3 1.3 0 0 1 1 .6l3.4 6a1.3 1.3 0 0 1 0 1.2l-5.2 11a4 4 0 0 0 1.2 5l9.9 7.8a4 4 0 0 0 5 0l9.6-7.6a.8.8 0 0 1 .8-.1l6.2 2.4a.8.8 0 0 1 .5.5l3.3 12.4a4 4 0 0 0 2.9 3 4.2 4.2 0 0 0 1.1 0l13.2-.1a4.1 4.1 0 0 0 4-3.3l2.4-13 8-4a1.4 1.4 0 0 1 1 0l8 7.7a4 4 0 0 0 5.5.3l9.3-7.5.2-.2.3-.3.2-.3.2-.3.2-.4.2-.4v-.3l.1-.4V287l-.2-.4-.1-.3-4.7-10a1.2 1.2 0 0 1 0-1l3.5-7a1.3 1.3 0 0 1 1-.7l11.3-.7a4 4 0 0 0 3.8-3.4Zm-17.5 7a9.4 9.4 0 0 0-7.9 5.3l-3.4 6.9a9.4 9.4 0 0 0 0 8.2l3.2 7.1-4 3.2-5.8-5.7a3.2 3.2 0 0 0-.5-.4 9.4 9.4 0 0 0-9.5-.6l-8.4 4.2a4 4 0 0 0-3.6 3.4l-2.2 12h-6.7l-2.5-9.3a9 9 0 0 0-5.3-6l-6.3-2.5a9 9 0 0 0-8.9 1.4l-6.9 5.6-4.8-3.8 3.8-8a9.4 9.4 0 0 0-.3-8.7l-3.3-6a9.5 9.5 0 0 0-7.9-4.8l-8.6-.4-1.3-5.7 7.3-3.6a9.2 9.2 0 0 0 4.8-6l2.1-8.1a9.1 9.1 0 0 0-2.7-9.2l-6-5.3 3-5.3 8.5 2.3a9.3 9.3 0 0 0 8.5-2l5-4.5a9.3 9.3 0 0 0 3.2-7.6l-.6-8.5 4.5-2.1 6.6 7.4a9.8 9.8 0 0 0 6.6 3.2l6.6.5a9.8 9.8 0 0 0 8.8-4.4l4.8-7.2 5.5 1.5-1 8.5a9.6 9.6 0 0 0 2.7 7.7l4.6 4.8a9.6 9.6 0 0 0 9.9 2.4l7.8-2.4 3.3 5-5.8 7.7a9.1 9.1 0 0 0-1.8 6.4l.6 6.8a9.1 9.1 0 0 0 5.6 7.6l7.7 3.2-.9 5.3Z"/><path d="M415.7 312.2a2 2 0 0 0-1.2-.7 4.9 4.9 0 0 1-3.5-3.4l-3.4-12.5-6.2-2.4-9.4 7.7a4.9 4.9 0 0 1-6 0l-10-7.8a4.8 4.8 0 0 1-1.4-6l5.2-11a.5.5 0 0 0 0-.4l-3.3-6a.5.5 0 0 0-.4-.2l-11.9-.5a4.9 4.9 0 0 1-4.5-3.8l-2.7-12a4.9 4.9 0 0 1 2.6-5.4l10.2-5a.3.3 0 0 0 .1-.2l2.2-8.2a.2.2 0 0 0-.1-.2l-8.4-7.6a5 5 0 0 1-1-6l6.2-11a4.9 4.9 0 0 1 5.5-2.2l11.5 3.1a.3.3 0 0 0 .3 0l5-4.5a.3.3 0 0 0 .2-.2l-.9-11.4a4.9 4.9 0 0 1 2.9-4.8l9.8-4.5a4.9 4.9 0 0 1 5.7 1.2l8.6 9.6a.7.7 0 0 0 .5.3l6.6.5a.8.8 0 0 0 .7-.4l6.4-9.7a4.9 4.9 0 0 1 5.4-2l11.7 3.2a4.8 4.8 0 0 1 3.6 5.2l-1.3 12a.7.7 0 0 0 .2.6l4.6 4.7a.7.7 0 0 0 .7.2l10.7-3.5a5 5 0 0 1 5.6 2l6.6 10.1a4.9 4.9 0 0 1-.2 5.6l-7.6 10a.2.2 0 0 0 0 .2l.6 6.7a.1.1 0 0 0 .2.2l10.6 4.4a4.9 4.9 0 0 1 3 5.2l-2 11.8a4.9 4.9 0 0 1-4.5 4.1l-11.4.7a.4.4 0 0 0-.4.3l-3.4 6.9a.5.5 0 0 0 0 .4l4.7 10a1.3 1.3 0 0 1 0 .3l.1.1.1.4.1.4v.6a3.2 3.2 0 0 1 0 .4v.9h-.8l.8.2-.1.4-.2.3v.2a2.5 2.5 0 0 1-.2.3l-.3.4-.3.4-.3.3a2.5 2.5 0 0 1-.3.3l-9.3 7.5a4.9 4.9 0 0 1-6.5-.3L444 291a.5.5 0 0 0-.3 0l-7.7 3.9-2.3 12.6a4.3 4.3 0 0 1-4.8 3.7l-13.1 1Zm-14.3-20.5a1.7 1.7 0 0 1 .6.1l6.2 2.5a1.6 1.6 0 0 1 1 1l3.3 12.3a3.4 3.4 0 0 0 1.5 2 3.4 3.4 0 0 0 1.8.5l13.1-.2a3.3 3.3 0 0 0 3.2-2.6l2.5-13.4 8.4-4.2a2.2 2.2 0 0 1 1.6 0h.2l8.2 8a3.3 3.3 0 0 0 4.3.2l9.4-7.5.1-.2a3 3 0 0 0 .3-.2l.1-.2.3-.4a2 2 0 0 0 0-.2l.2-.3a2.3 2.3 0 0 0 0-.3v-.1a2 2 0 0 0 0-.2 1.4 1.4 0 0 0 0-.2v-.5a1.9 1.9 0 0 0 0-.2v-.9l-4.7-10a2 2 0 0 1 0-1.9l3.4-6.9a2 2 0 0 1 1.7-1.1l11.4-.7a3.3 3.3 0 0 0 3-2.8l1.9-11.8a3.3 3.3 0 0 0-2-3.5l-10.7-4.4a1.8 1.8 0 0 1-1-1.5l-.7-6.8a1.8 1.8 0 0 1 .4-1.2l7.5-10a3.3 3.3 0 0 0 .2-3.8l-6.7-10.1a3.3 3.3 0 0 0-3.7-1.3L457 212a2.3 2.3 0 0 1-2.4-.6l-4.6-4.7a2.3 2.3 0 0 1-.6-1.9l1.3-12a3.3 3.3 0 0 0-2.5-3.5l-11.7-3.2a3.3 3.3 0 0 0-3.6 1.4l-6.4 9.7a2.4 2.4 0 0 1-2.1 1l-6.6-.4a2.3 2.3 0 0 1-1.6-.8l-8.7-9.7a3.3 3.3 0 0 0-3.8-.8l-9.8 4.6a3.3 3.3 0 0 0-2 3.2l1 11.4a1.9 1.9 0 0 1-.7 1.5l-5.1 4.5a1.8 1.8 0 0 1-1.7.4l-11.6-3.2a3.3 3.3 0 0 0-3.7 1.6l-6.1 10.9a3.3 3.3 0 0 0 .7 4l8.4 7.6a1.8 1.8 0 0 1 .6 1.8l-2.2 8.2a1.8 1.8 0 0 1-1 1.2l-10.1 5a3.3 3.3 0 0 0-1.8 3.7l2.6 12a3.3 3.3 0 0 0 3.1 2.6l11.8.4a2 2 0 0 1 1.8 1l3.3 6a2.1 2.1 0 0 1 0 2l-5.2 11a3.3 3.3 0 0 0 1 4l9.9 7.8a3.3 3.3 0 0 0 4 0l9.5-7.6a1.6 1.6 0 0 1 1-.5Zm16.8 11.6-2.7-10a8.2 8.2 0 0 0-4.8-5.4l-6.3-2.5a8.2 8.2 0 0 0-8 1.3l-7.5 6-5.8-4.6 4-8.7a8.7 8.7 0 0 0-.2-7.8l-3.3-6a8.7 8.7 0 0 0-7.2-4.5l-9.3-.3-1.5-7 7.8-4a8.4 8.4 0 0 0 4.4-5.3l2.2-8.3a8.4 8.4 0 0 0-2.5-8.3L371 222l3.6-6.3 9.1 2.4a8.4 8.4 0 0 0 7.8-1.7l5-4.5a8.5 8.5 0 0 0 3-7l-.7-9 5.5-2.7 7 7.9a9 9 0 0 0 6 3l6.6.4a9 9 0 0 0 8.2-4l5-7.7 6.8 1.8-1 9.2a8.8 8.8 0 0 0 2.4 7.1l4.6 4.7a8.8 8.8 0 0 0 9 2.3l8.4-2.6 4 6-6.2 8.2a8.3 8.3 0 0 0-1.6 5.8l.6 6.8a8.3 8.3 0 0 0 5.1 7l8.3 3.4-1 6.5-8.8.6a8.6 8.6 0 0 0-7.2 4.8l-3.5 6.9a8.5 8.5 0 0 0-.1 7.4l3.6 7.7-5 4-6.4-6.1a3.4 3.4 0 0 0-.4-.4 8.6 8.6 0 0 0-8.7-.5l-8.2 4.1-.2.1-.1.1h-.2a3.3 3.3 0 0 0-2.8 2.6l-2.3 12.7Zm-16.7-19.5a9.7 9.7 0 0 1 3.5.6l6.2 2.5a9.8 9.8 0 0 1 5.9 6.5l2.3 8.8 5.4-.1 2.1-11.4a4.8 4.8 0 0 1 4-3.9l8.4-4.2a10.3 10.3 0 0 1 10.2.6 4.6 4.6 0 0 1 .7.6l5.3 5.2 3-2.4-3-6.6a10.1 10.1 0 0 1 .1-8.9l3.4-6.9a10.2 10.2 0 0 1 8.5-5.6l7.5-.5.7-4-7.1-3a10 10 0 0 1-6.1-8.3l-.6-6.8a10 10 0 0 1 2-6.9l5.5-7.2-2.7-4.1-7.2 2.3a10.4 10.4 0 0 1-10.8-2.8l-4.5-4.7a10.4 10.4 0 0 1-2.9-8.4l.8-7.8-4.2-1.2-4.5 6.8a10.6 10.6 0 0 1-9.6 4.7l-6.6-.5a10.5 10.5 0 0 1-7-3.5l-6.3-7-3.5 1.7.6 8a10 10 0 0 1-3.4 8.3l-5.1 4.4a10 10 0 0 1-9.2 2.2l-8-2.2-2.3 4.2 5.5 5a10 10 0 0 1 3 10l-2.1 8.2a10 10 0 0 1-5.3 6.4l-6.7 3.3 1 4.6 8 .3a10.3 10.3 0 0 1 8.6 5.2l3.3 6a10.2 10.2 0 0 1 .3 9.3l-3.5 7.5 3.8 3 6.4-5.2a9.7 9.7 0 0 1 6.1-2.1Z"/><path d="M426.6 230.4a19 19 0 1 0 13.3 23.4 19 19 0 0 0-13.3-23.4Zm-8 28.9a10.9 10.9 0 1 1 13.4-7.7 10.9 10.9 0 0 1-13.3 7.7Z"/><path d="M421.5 268.6a20 20 0 0 1-5.2-.7 19.9 19.9 0 0 1 10.5-38.3 19.9 19.9 0 0 1-5.3 39Zm0-38a18.3 18.3 0 1 0 4.9.6 18.4 18.4 0 0 0-4.9-.7Zm0 29.9a11.6 11.6 0 0 1-3-.5 11.7 11.7 0 1 1 8.8-1 11.6 11.6 0 0 1-5.8 1.5Zm-2.6-2a10 10 0 1 0-7.1-12.4 10 10 0 0 0 7 12.4Zm-58.5-72q-1 5-2.5 10a4 4 0 0 0 6.2-4.5 10.4 10.4 0 0 0-3.8-5.5Z"/><path d="M360.2 197.9a5 5 0 0 1-2.7-.8l-.5-.3.2-.6c.9-3.2 1.7-6.6 2.4-9.9l.2-1.2 1 .7a11.2 11.2 0 0 1 4 6 4.9 4.9 0 0 1-3.4 6 4.5 4.5 0 0 1-1.2.1Zm-1.3-1.9a3.2 3.2 0 0 0 2.1.2 3.3 3.3 0 0 0 2.3-4 9.6 9.6 0 0 0-2.5-4.2 72 72 0 0 1-2 8Zm90.6-62.6-13.6-5.6a2.4 2.4 0 0 1-1.4-2l-.8-8.7a2.3 2.3 0 0 1 .4-1.6l9.7-12.8a4 4 0 0 0 .2-4.7l-8.5-13a4 4 0 0 0-4.6-1.6l-13.7 4.4a3 3 0 0 1-3.2-.8l-5.8-6a3.1 3.1 0 0 1-.8-2.4l1.6-15.3a4 4 0 0 0-3-4.4l-15-4a4.1 4.1 0 0 0-4.5 1.6L378.3 69a3.2 3.2 0 0 1-2.8 1.4l-8.5-.6a3.1 3.1 0 0 1-2-1l-11-12.4a4 4 0 0 0-4.8-1l-12.6 5.9a4 4 0 0 0-2.3 4l.5 7.6q4.2 5.5 7.8 11.4a10.7 10.7 0 0 0 .9-5.1l-.9-11.7L350 64l9 10a11.2 11.2 0 0 0 7.5 3.8l8.5.6a11.3 11.3 0 0 0 10.3-5l6.5-10 8.8 2.4-1.3 11.9a11.2 11.2 0 0 0 3.1 9l5.9 6a11.2 11.2 0 0 0 11.4 2.9l10.8-3.4 5.2 7.9-8 10.4a10.5 10.5 0 0 0-2 7.4l.7 8.6a10.5 10.5 0 0 0 6.5 8.8l10.6 4.4-1.3 8.6-11.3.8a11 11 0 0 0-9 6l-4.4 8.8a10.9 10.9 0 0 0-.1 9.4 4 4 0 0 0 7.4-3.4 2.7 2.7 0 0 1 0-2.4l4.4-8.8a2.7 2.7 0 0 1 2.2-1.5l14.6-1a4.1 4.1 0 0 0 3.8-3.4l2.3-15a4 4 0 0 0-2.5-4.4Z"/><path d="M421 176.6a4.9 4.9 0 0 1-4.5-2.9 11.6 11.6 0 0 1 .1-10.1l4.4-8.8a11.8 11.8 0 0 1 9.7-6.5l10.7-.7 1.2-7.4-10-4a11.3 11.3 0 0 1-7-9.6l-.8-8.6a11.4 11.4 0 0 1 2.2-8l7.6-10-4.5-6.9-10.2 3.3a12 12 0 0 1-12.3-3.1l-5.8-6a12 12 0 0 1-3.3-9.7l1.2-11.1-7.6-2.1-6.2 9.4a12 12 0 0 1-11 5.5l-8.5-.7a12 12 0 0 1-8-4l-8.8-9.6-6.2 2.9.9 11.1a11.4 11.4 0 0 1-1 5.5l-.6 1.4-.8-1.3c-2.4-3.9-5-7.7-7.7-11.3l-.2-.2-.5-8a5 5 0 0 1 2.8-4.7l12.5-5.8a4.8 4.8 0 0 1 5.7 1.2l11 12.3a2.4 2.4 0 0 0 1.6.8l8.5.6a2.3 2.3 0 0 0 2.1-1l8.2-12.4a4.9 4.9 0 0 1 5.3-2l15 4a4.9 4.9 0 0 1 3.6 5.3l-1.6 15.3a2.2 2.2 0 0 0 .6 1.8l5.8 6a2.3 2.3 0 0 0 2.3.6l13.8-4.4a4.9 4.9 0 0 1 5.5 2l8.5 13a4.9 4.9 0 0 1-.2 5.6l-9.7 12.7a1.6 1.6 0 0 0-.3 1.1l.8 8.7a1.6 1.6 0 0 0 1 1.3l13.6 5.6a4.9 4.9 0 0 1 3 5.3l-2.4 15a4.9 4.9 0 0 1-4.5 4l-14.6 1a2 2 0 0 0-1.6 1.1l-4.4 8.8a2 2 0 0 0 0 1.7 4.9 4.9 0 0 1-2.4 6.5 5 5 0 0 1-2 .5Zm9.8-85.3 5.8 8.8-8.3 10.9a9.8 9.8 0 0 0-2 6.8l.8 8.7a9.7 9.7 0 0 0 6 8.1l11.2 4.6-1.5 9.9-12 .8a10.1 10.1 0 0 0-8.4 5.5l-4.3 8.9a10 10 0 0 0-.2 8.7 3.3 3.3 0 0 0 6.1-.2 3.2 3.2 0 0 0-.1-2.5 3.5 3.5 0 0 1 0-3.1l4.4-8.8a3.5 3.5 0 0 1 3-2l14.5-1a3.3 3.3 0 0 0 3-2.7l2.4-15a3.3 3.3 0 0 0-2-3.6l-13.6-5.6a3.2 3.2 0 0 1-2-2.7l-.8-8.6a3.2 3.2 0 0 1 .6-2.3l9.7-12.7a3.3 3.3 0 0 0 .2-3.8l-8.5-12.9a3.3 3.3 0 0 0-3.7-1.3l-13.7 4.4a3.8 3.8 0 0 1-4-1l-5.8-6a3.9 3.9 0 0 1-1-3l1.6-15.4a3.3 3.3 0 0 0-2.4-3.5l-15-4a3.3 3.3 0 0 0-3.6 1.3l-8.1 12.4a4 4 0 0 1-3.6 1.8l-8.5-.7a4 4 0 0 1-2.6-1.3l-11-12.3a3.3 3.3 0 0 0-3.9-.8L337 61.9a3.3 3.3 0 0 0-1.9 3.2l.5 7.4c2.4 3.2 4.7 6.5 6.8 9.9a9.8 9.8 0 0 0 .3-3.2l-.9-12.3 8.3-3.8 9.4 10.5a10.5 10.5 0 0 0 7 3.4l8.5.7a10.5 10.5 0 0 0 9.5-4.7l6.9-10.4 10 2.7-1.4 12.5a10.4 10.4 0 0 0 2.9 8.4l5.8 6a10.4 10.4 0 0 0 10.7 2.7Z"/><path d="M395 134v-.4l-.1-1.9v-.2l-.4-2a1.2 1.2 0 0 0 0-.2 19.4 19.4 0 0 0-.6-2 1.3 1.3 0 0 1 0-.2l-.8-1.9-.1-.2-.8-1.6a23 23 0 0 0-14.2-11 22.8 22.8 0 0 0-2.4-.5 23.2 23.2 0 0 0-19 5.4l2.7 9.2a15.1 15.1 0 0 1 16.5-6.2 14.7 14.7 0 0 1 2.7 1h.2a15 15 0 0 1 2.2 1.5l.4.3a15.3 15.3 0 0 1 1.8 1.7l.3.4a14.7 14.7 0 0 1 1.5 2.1l.2.4a14.9 14.9 0 0 1 1 2.3l.1.5a15.2 15.2 0 0 1 .5 2.4v.5a15 15 0 0 1 0 2.5v.4a15 15 0 0 1-18.6 13l-.8-.2-.8-.3-.5-.2-1-.4-.2-.1-1.1-.7h-.1a11.4 11.4 0 0 1-1.2-.8 14 14 0 0 1-1-1l-1-1-.2-.3-.6-.7-2.3 9.3a22.7 22.7 0 0 0 3.8 2.4l.2.1 1.6.7.5.3 1 .3 1.2.4h.2l.6.1h.3a23.2 23.2 0 0 0 27.3-15.6 1.9 1.9 0 0 0 .1-.2 2.3 2.3 0 0 0 0-.3l.1-.2a7.9 7.9 0 0 0 .2-.9l.3-1.2.1-1 .2-1.4v-2.3Z"/><path d="M371.8 158.7a24.2 24.2 0 0 1-5.2-.5h-.2a4.2 4.2 0 0 1-.5-.1h-.4l-1-.4-.6-.2-.6-.2-.4-.1-.2-.1-1.7-.8a23.9 23.9 0 0 1-4-2.6l-.5-.3 2.9-11.5 1 1.4.5.7.2.2a11.1 11.1 0 0 0 .9 1 12 12 0 0 0 1 .8l.1.1 1 .8a11.1 11.1 0 0 0 1.1.6l.3.1 1 .4.4.2.7.2.8.2a14.2 14.2 0 0 0 17-9.8 13.9 13.9 0 0 0 .6-2.5v-.2a1.1 1.1 0 0 0 0-.2 14.6 14.6 0 0 0 0-2.3v-.5a14.3 14.3 0 0 0-.5-2.3v-.2l-.2-.2a13.6 13.6 0 0 0-1-2.3v-.1l-.1-.2a14.8 14.8 0 0 0-1.4-2l-.3-.3a13.7 13.7 0 0 0-1.8-1.7l-.3-.2a14.6 14.6 0 0 0-2.1-1.4h-.2a14 14 0 0 0-2.5-1 14.3 14.3 0 0 0-15.7 5.8l-1 1.5-3.2-11.5.4-.3a24 24 0 0 1 19.7-5.6l2.4.5a23.8 23.8 0 0 1 14.6 11.4l.8 1.7.1.2c.3.6.6 1.2.8 2v.2l.7 2v.1l.4 2v.3l.2 2v2.8l-.2 1.4v1l-.3 1-.1.5-.2.7a1 1 0 0 0 0 .2 1.6 1.6 0 0 1 0 .3 1 1 0 0 1-.1.2 24.1 24.1 0 0 1-23.1 17Zm-13.7-6a21.8 21.8 0 0 0 3.3 2 16.8 16.8 0 0 0 1.7.8h.2l.3.2.6.2.6.2 1 .3h.2l.4.1h.2a22.5 22.5 0 0 0 26.3-15.1v-.4a.8.8 0 0 1 0-.2.6.6 0 0 1 .1-.2 3 3 0 0 0 .2-.6v-.5l.3-1v-.8l.2-1.4v-2.2a2.3 2.3 0 0 0 0-.3v-.2l-.1-1.8v-.2l-.4-2-.6-2a1.7 1.7 0 0 1 0-.2 31 31 0 0 0-.8-1.8v-.2l-.8-1.6a22.3 22.3 0 0 0-13.6-10.6h-.1a21.2 21.2 0 0 0-2.2-.5 22.3 22.3 0 0 0-18 4.9l2 7.1a15.8 15.8 0 0 1 19.3-4h.1a15.7 15.7 0 0 1 2.4 1.5l.4.3a15.9 15.9 0 0 1 2 1.8l.3.4a16.7 16.7 0 0 1 1.7 2.3l.1.3a16.5 16.5 0 0 1 1.2 2.5v.6a15.2 15.2 0 0 1 .6 2.5v.5a15.7 15.7 0 0 1 0 2.6v.4a16 16 0 0 1-.5 2.8 15.7 15.7 0 0 1-19 11l-1-.2-.7-.3-.4-.2h-.1l-1-.5-.3-.1a13.8 13.8 0 0 1-1.2-.7 12 12 0 0 1-2.4-1.9h-.1l-.7-.8Z"/><path d="m218.5 492-59-16.8-52.6-25.5s2.2-74.5 25.2-88 48.5-17.6 48.5-17.6Zm71-.8 109.2-43s-.6-73-23.6-86.6-49.3-17.5-49.3-17.5Zm-140.8-303c-5.6-23.6-26-133.2 86-133.6a6.5 6.5 0 0 0 1 0C243.5 53 350 26.3 350 136v29.5c-.3 4.1-8.3.4-11.7-2a5.3 5.3 0 0 1-2.3-3.4l-2-11.9a5.3 5.3 0 0 0-8-3.5c-11 6.8-35.9 18.7-74.8 17.8a5.3 5.3 0 0 1-5.1-5.8l1.6-17.7a5.3 5.3 0 0 0-9.5-3.9c-11.7 14.2-34 33.9-73.7 47.1a4.5 4.5 0 0 0-2.6 6.3c4.3 8.6-1.2 2.5-7 3.7a5.3 5.3 0 0 1-6.2-4Z" class="cls-3"/><circle cx="255.3" cy="393.8" r="9.5"/><circle cx="255.3" cy="437.8" r="9.5"/><circle cx="256.4" cy="475.8" r="9.5"/><path d="M336 271.8a5.5 5.5 0 0 1-3.8-1.5 5.8 5.8 0 0 1 0-8.1c11.2-11.3 16.8-28.4 16.8-50.9v-3.6a5.7 5.7 0 0 1 5-5.8 5.5 5.5 0 0 1 6 5.5v4c0 25.6-6.8 45.4-20.2 58.8a5.5 5.5 0 0 1-3.9 1.6Z"/><path d="m336.9 223.7 15.2-9.6.2 15-13.8 28.1-1.6-33.5z" class="cls-3"/><path d="M174.5 285.4a5.5 5.5 0 0 1-2.9-.8l-6.8-4.2A47.9 47.9 0 0 1 142 240v-12.5a1 1 0 0 1 .2-.7c4.9-5.1 10.8-1.8 10.8 3V257a5.8 5.8 0 0 0 2.8 5l23.5 14.4a.9.9 0 0 1 .4.5c1.5 5.2-1.8 8.4-5.2 8.4Z"/><path d="m171.6 270.5-3.7-25.3-20-2.4 13.3 27.4 10.4.3z" class="cls-3"/><path d="m226.9 342.5-21.6 11.2 33.1 140.7-34.2-4-24.4-148.2 33-13.2 14.1 13.5zm74.9 17.1-29.5 133.6h13.6l34.8-152.5-9.3-6.6-9.6 25.5z" class="cls-1"/><path d="M250 500A250 250 0 0 1 73.2 73.2 250.2 250.2 0 0 1 356.7 24c7.3 3.3 14.3 7 21.1 11a5.6 5.6 0 0 1-5.7 9.6c-6.5-3.9-13.3-7.5-20.1-10.7a236.6 236.6 0 0 0-102-22.8C118.3 11.2 11.2 118.3 11.2 250S118.3 488.8 250 488.8 488.8 381.7 488.8 250a236.1 236.1 0 0 0-26.7-109.8 5.6 5.6 0 1 1 10-5.1A250 250 0 0 1 250 500Z"/><path d="M332.5 145.1a425 425 0 0 1-56.4 2.7 12.8 12.8 0 0 1-12.2-9 90 90 0 0 0-7.9-17.6l-8.2 39 2 .6-2 2.5 9.5-.6 7 1.8a19 19 0 0 0 1-2.3l18.7-1.1Zm-181.8 19.2s36.7-2.4 83-30.3c0 0-25.8 33.5-42.8 40.6s-23.4 8.8-23.4 8.8l-10.8 12.4-12.4-5.2Z" opacity=".4"/></g></g></g></svg>